# xmcd CD database file
#
# Track frame offsets:
#	150
#	15352
#	33437
#
# Disc length: 646 seconds
#
# Revision: 0
# Processed by: cddbd v1.5PL3 Copyright (c) Steve Scherf et al.
# Submitted via: CDex 1.50beta10
#
DISCID=15028403
DTITLE=遊佐未森 - レモンの木
DYEAR=1998
DGENRE=JPop
TTITLE0=レモンの木
TTITLE1=水のなか
TTITLE2=レモンの木[backing track]
EXTD=YEAR: 1998
EXTT0=
EXTT1=
EXTT2=
PLAYORDER=
